<?xml version="1.0" standalone="yes"?>

<svg version="1.1" viewBox="0.0 0.0 100.0 100.0" fill="none" stroke="none" stroke-linecap="square" stroke-miterlimit="10" xmlns="http://www.w3.org/2000/svg" xmlns:xlink="http://www.w3.org/1999/xlink"><clipPath id="p.0"><path d="m0 0l100.0 0l0 100.0l-100.0 0l0 -100.0z" clip-rule="nonzero"></path></clipPath><g clip-path="url(#p.0)"><path fill="#000000" fill-opacity="0.0" d="m0 0l100.0 0l0 100.0l-100.0 0z" fill-rule="nonzero"></path><path fill="#434c80" d="m0 11.401575l0 0c0 -6.296916 5.104659 -11.401575 11.401575 -11.401575l0 0c3.0238857 0 5.9239197 1.2012339 8.06213 3.339444c2.1382103 2.13821 3.339445 5.038245 3.339445 8.062131l0 0c0 6.296915 -5.10466 11.401575 -11.401575 11.401575l0 0c-6.296916 0 -11.401575 -5.10466 -11.401575 -11.401575zm8.437621 0c0 1.6369457 1.3270073 2.963953 2.963954 2.963953c1.6369457 0 2.963953 -1.3270073 2.963953 -2.963953c0 -1.6369467 -1.3270073 -2.963954 -2.963953 -2.963954l0 0c-1.6369467 0 -2.963954 1.3270073 -2.963954 2.963954z" fill-rule="nonzero"></path></g></svg>

