<?xml version="1.0" standalone="yes"?>

<svg version="1.1" viewBox="0.0 0.0 960.0 720.0" fill="none" stroke="none" stroke-linecap="square" stroke-miterlimit="10" xmlns="http://www.w3.org/2000/svg" xmlns:xlink="http://www.w3.org/1999/xlink"><clipPath id="p.0"><path d="m0 0l960.0 0l0 720.0l-960.0 0l0 -720.0z" clip-rule="nonzero"></path></clipPath><g clip-path="url(#p.0)"><path fill="#000000" fill-opacity="0.0" d="m0 0l960.0 0l0 720.0l-960.0 0z" fill-rule="nonzero"></path><path fill="#434c80" d="m83.661415 51.965878l0 0c0 -6.296913 5.10466 -11.401573 11.401581 -11.401573l0 0c3.02388 0 5.9239197 1.2012329 8.062126 3.3394432c2.138214 2.1382103 3.339447 5.038246 3.339447 8.06213l0 0c0 6.296917 -5.10466 11.401577 -11.401573 11.401577l0 0c-6.296921 0 -11.401581 -5.10466 -11.401581 -11.401577zm8.437622 0c0 1.6369476 1.3270111 2.963955 2.9639587 2.963955c1.63694 0 2.963951 -1.3270073 2.963951 -2.963955c0 -1.6369438 -1.3270111 -2.963951 -2.963951 -2.963951l0 0c-1.6369476 0 -2.9639587 1.3270073 -2.9639587 2.963951z" fill-rule="nonzero"></path></g></svg>

